<svg width="32" height="32" viewBox="0 0 32 32" fill="none" xmlns="http://www.w3.org/2000/svg">
<path d="M18.667 6.66663C19.0121 6.66662 19.3438 6.80044 19.5923 7.03996L19.7083 7.16663L24.6403 13.3333H25.3337C26.3539 13.3332 27.3357 13.7231 28.078 14.423C28.8203 15.1229 29.2671 16.0801 29.327 17.0986L29.3337 17.3333V22.6666C29.3337 23.0202 29.1932 23.3594 28.9431 23.6094C28.6931 23.8595 28.3539 24 28.0003 24H26.439C26.163 24.7797 25.6521 25.4548 24.9766 25.9323C24.3011 26.4097 23.4942 26.6661 22.667 26.6661C21.8398 26.6661 21.0329 26.4097 20.3574 25.9323C19.6819 25.4548 19.171 24.7797 18.895 24H13.1057C12.8296 24.7797 12.3187 25.4548 11.6432 25.9323C10.9677 26.4097 10.1609 26.6661 9.33366 26.6661C8.50646 26.6661 7.69959 26.4097 7.02409 25.9323C6.3486 25.4548 5.83768 24.7797 5.56166 24H4.00033C3.6467 24 3.30756 23.8595 3.05752 23.6094C2.80747 23.3594 2.66699 23.0202 2.66699 22.6666V14.6666L2.67633 14.5106L2.68699 14.436L2.70966 14.332L2.72566 14.284L2.74433 14.2173L5.42966 7.50529C5.5285 7.25788 5.69921 7.04575 5.91975 6.89626C6.14029 6.74678 6.40056 6.66679 6.66699 6.66663H18.667ZM9.33366 21.3333C8.98004 21.3333 8.6409 21.4738 8.39085 21.7238C8.1408 21.9739 8.00033 22.313 8.00033 22.6666C8.00033 23.0202 8.1408 23.3594 8.39085 23.6094C8.6409 23.8595 8.98004 24 9.33366 24C9.68728 24 10.0264 23.8595 10.2765 23.6094C10.5265 23.3594 10.667 23.0202 10.667 22.6666C10.667 22.313 10.5265 21.9739 10.2765 21.7238C10.0264 21.4738 9.68728 21.3333 9.33366 21.3333ZM22.667 21.3333C22.3134 21.3333 21.9742 21.4738 21.7242 21.7238C21.4741 21.9739 21.3337 22.313 21.3337 22.6666C21.3337 23.0202 21.4741 23.3594 21.7242 23.6094C21.9742 23.8595 22.3134 24 22.667 24C23.0206 24 23.3598 23.8595 23.6098 23.6094C23.8599 23.3594 24.0003 23.0202 24.0003 22.6666C24.0003 22.313 23.8599 21.9739 23.6098 21.7238C23.3598 21.4738 23.0206 21.3333 22.667 21.3333ZM14.667 9.33329H7.56833L5.96833 13.3333H14.667V9.33329ZM18.027 9.33329H17.3337V13.3333H21.227L18.027 9.33329Z" fill="black"/>
</svg>
