<svg width="32" height="32" viewBox="0 0 32 32" fill="none" xmlns="http://www.w3.org/2000/svg">
<path fill-rule="evenodd" clip-rule="evenodd" d="M16.0003 2.66669C17.7513 2.66668 19.4851 3.01155 21.1028 3.68161C22.7204 4.35167 24.1903 5.33379 25.4284 6.5719C26.6665 7.81002 27.6487 9.27987 28.3187 10.8975C28.9888 12.5152 29.3337 14.249 29.3337 16C29.3337 23.3638 23.3641 29.3334 16.0003 29.3334C8.63656 29.3334 2.66699 23.3638 2.66699 16C2.66699 8.63625 8.63656 2.66669 16.0003 2.66669ZM17.3337 17.3334H14.667C11.3661 17.3334 8.53212 19.3326 7.30981 22.1864C9.24381 24.8983 12.4156 26.6667 16.0003 26.6667C19.5851 26.6667 22.7568 24.8983 24.6909 22.1862C23.4686 19.3326 20.6346 17.3334 17.3337 17.3334ZM16.0003 6.66669C13.7912 6.66669 12.0003 8.45756 12.0003 10.6667C12.0003 12.8758 13.7912 14.6667 16.0003 14.6667C18.2094 14.6667 20.0003 12.8758 20.0003 10.6667C20.0003 8.45756 18.2095 6.66669 16.0003 6.66669Z" fill="black"/>
</svg>
