<svg width="21" height="21" viewBox="0 0 21 21" fill="none" xmlns="http://www.w3.org/2000/svg">
<path d="M10.5 1.3125C5.38125 1.3125 1.3125 5.38125 1.3125 10.5C1.3125 15.6188 5.38125 19.6875 10.5 19.6875C15.6188 19.6875 19.6875 15.6188 19.6875 10.5C19.6875 5.38125 15.6188 1.3125 10.5 1.3125ZM10.5 18.375C6.16875 18.375 2.625 14.8313 2.625 10.5C2.625 6.16875 6.16875 2.625 10.5 2.625C14.8313 2.625 18.375 6.16875 18.375 10.5C18.375 14.8313 14.8313 18.375 10.5 18.375Z" fill="black"/>
<path d="M14.0437 15.0938L10.5 11.55L6.95625 15.0938L5.90625 14.0437L9.45 10.5L5.90625 6.95625L6.95625 5.90625L10.5 9.45L14.0437 5.90625L15.0938 6.95625L11.55 10.5L15.0938 14.0437L14.0437 15.0938Z" fill="black"/>
</svg>
