<svg width="32" height="32" viewBox="0 0 32 32" fill="none" xmlns="http://www.w3.org/2000/svg">
<path d="M29.3337 10.0466V22.6666C29.3337 23.6869 28.9439 24.6686 28.2439 25.411C27.544 26.1533 26.5869 26.6001 25.5683 26.66L25.3337 26.6666H6.66699C5.64671 26.6667 4.66497 26.2769 3.92264 25.5769C3.18032 24.877 2.73352 23.9198 2.67366 22.9013L2.66699 22.6666V10.0466L15.2603 18.4426L15.415 18.5306C15.5973 18.6197 15.7975 18.666 16.0003 18.666C16.2032 18.666 16.4034 18.6197 16.5857 18.5306L16.7403 18.4426L29.3337 10.0466Z" fill="#191A23"/>
<path d="M25.3341 5.33331C26.7741 5.33331 28.0367 6.09331 28.7407 7.23598L16.0007 15.7293L3.26074 7.23598C3.59513 6.69308 4.05446 6.23798 4.60044 5.90863C5.14641 5.57928 5.76321 5.38523 6.39941 5.34265L6.66741 5.33331H25.3341Z" fill="#191A23"/>
</svg>
